<svg width="40" height="35" viewBox="0 0 40 35" fill="none" xmlns="http://www.w3.org/2000/svg">
<path d="M30.2308 1H9.76923C4.92612 1 1 4.40952 1 8.61538V26.3846C1 30.5905 4.92612 34 9.76923 34H30.2308C35.0739 34 39 30.5905 39 26.3846V8.61538C39 4.40952 35.0739 1 30.2308 1Z" fill="#462206" stroke="#462206" stroke-linecap="round" stroke-linejoin="round"/>
<path d="M11.2308 20.0384L17.2231 24.2015C17.384 24.3166 17.5725 24.3991 17.7747 24.443C17.977 24.4869 18.1879 24.4911 18.3923 24.4554C18.5986 24.4217 18.7942 24.3499 18.9657 24.2448C19.1372 24.1397 19.2806 24.0037 19.3862 23.8461L28.7692 9.88458" stroke="#31F739" stroke-width="3" stroke-linecap="round" stroke-linejoin="round"/>
</svg>
