<svg width="71" height="59" viewBox="0 0 71 59" fill="none" xmlns="http://www.w3.org/2000/svg">
<g clip-path="url(#clip0_126_25)">
<path d="M9.59822 14.9399C11.4543 13.8619 14.2522 14.0686 15.9187 15.2123L14.0073 12.9036C12.4692 11.0806 13.0201 9.10835 15.2157 7.82849C17.4114 6.55355 23.6331 9.98128 23.6331 9.98128C22.0812 8.14023 22.3714 5.80695 24.5869 4.51561C26.8023 3.22917 29.8588 3.67386 31.4107 5.51817L51.9853 29.6713L49.3631 50.7973L27.4795 44.1649L8.39178 20.6468C6.82597 18.7943 7.36699 16.2395 9.59822 14.9399Z" fill="#EF9645"/>
<path d="M5.32134 28.3768C5.32134 28.3768 3.08617 25.6694 6.3461 23.8136C9.6021 21.9578 11.8353 24.6635 11.8353 24.6635L22.2035 37.2293C22.5609 36.7337 22.9518 36.2447 23.3882 35.7624L8.99789 18.325C8.99789 18.325 6.76471 15.6192 10.0227 13.7634C13.2787 11.9076 15.5118 14.6134 15.5118 14.6134L29.0472 31.0171C29.5507 30.6756 30.0661 30.3327 30.5971 29.9964L14.9057 10.9773C14.9057 10.9773 12.6725 8.27152 15.9305 6.41573C19.1865 4.55993 21.4196 7.26567 21.4196 7.26567L37.1111 26.2816C37.6877 25.9878 38.2583 25.7334 38.8311 25.4644L24.1642 7.69067C24.1642 7.69067 21.931 4.9849 25.187 3.12911C28.443 1.2733 30.6761 3.97905 30.6761 3.97905L46.184 22.7733L48.5418 25.6316C38.7719 31.2007 37.8418 41.6776 43.4239 48.4427C44.5395 49.7965 46.1683 48.8695 46.1683 48.8695C39.4689 40.7489 41.5143 31.624 51.2862 26.0566L48.4054 14.0752C48.4054 14.0752 47.3295 10.9182 51.1265 10.0223C54.9253 9.12803 56.0033 12.285 56.0033 12.285L59.3305 20.4958C60.6494 23.7513 62.0534 26.9952 63.9115 30.0637C69.1578 38.7274 66.0241 49.4946 56.1317 55.134C45.3409 61.2823 30.5894 58.9966 23.1888 50.031L5.32134 28.3768Z" fill="#FFDC5D"/>
<path d="M23.6943 52.4896C15.7962 52.4896 7.81517 45.8651 7.81517 39.3095C7.81517 38.4031 7.01547 37.6705 5.92355 37.6705C4.83166 37.6705 3.86609 38.4031 3.86609 39.3095C3.86609 49.1428 11.8471 55.7673 23.6943 55.7673C24.7862 55.7673 25.6688 54.9659 25.6688 54.0597C25.6688 53.1534 24.7862 52.4896 23.6943 52.4896Z" fill="#737380"/>
<path d="M13.8217 55.7184C7.8981 55.7184 3.94905 52.4365 3.94905 47.5142C3.94905 46.6068 3.06643 45.8732 1.97452 45.8732C0.882613 45.8732 0 46.6068 0 47.5142C0 54.0774 5.92359 59 13.8217 59C14.9136 59 15.7962 58.2664 15.7962 57.3591C15.7962 56.4517 14.9136 55.7184 13.8217 55.7184ZM47.3887 3.21124C46.2988 3.21124 45.414 3.94636 45.414 4.85211C45.414 5.75785 46.2988 6.49295 47.3887 6.49295C55.2868 6.49295 63.185 12.3819 63.185 19.6197C63.185 20.5255 64.0695 21.2605 65.1594 21.2605C66.2492 21.2605 67.1338 20.5255 67.1338 19.6197C67.1338 10.5721 59.2359 3.21124 47.3887 3.21124Z" fill="#737380"/>
<path d="M57.2613 0C56.1714 0 55.2869 0.665407 55.2869 1.5701C55.2869 2.47478 56.1714 3.27787 57.2613 3.27787C63.185 3.27787 67.051 6.92449 67.051 11.4037C67.051 12.3084 68.0166 13.0426 69.1085 13.0426C70.2004 13.0426 71.0001 12.3084 71.0001 11.4037C71.0001 5.1151 65.1594 0 57.2613 0Z" fill="#737380"/>
</g>
<defs>
<clipPath id="clip0_126_25">
<rect width="71" height="59" fill="white"/>
</clipPath>
</defs>
</svg>
