<svg width="1575" height="1350" viewBox="0 0 1575 1350" fill="none" xmlns="http://www.w3.org/2000/svg">
<ellipse cx="787.5" cy="675" rx="787.5" ry="675" fill="#663DE4"/>
<path fill-rule="evenodd" clip-rule="evenodd" d="M593.832 442.546V550.091H771.654C877.51 550.091 949.476 549.584 949.476 548.837C949.476 547.701 942.322 543.451 920.751 531.773C916.613 529.533 910.766 526.297 907.756 524.579C904.747 522.863 898.592 519.454 894.078 517.006C883.871 511.469 872.907 505.437 863.985 500.45C860.223 498.348 853.579 494.732 849.22 492.416L841.295 488.204L771.594 488.478L701.893 488.751L701.872 441.885C701.86 416.108 701.399 394.326 700.846 393.481C700.294 392.635 694.301 388.99 687.53 385.38C680.759 381.77 673.373 377.735 671.116 376.413C668.859 375.092 658.395 369.488 647.862 363.959C637.33 358.432 623.48 350.998 617.085 347.439C610.69 343.88 602.842 339.625 599.645 337.984L593.832 335V442.546ZM870.78 336.745C870.412 337.711 870.271 368.581 870.468 405.345L870.824 472.188L889.974 483.49C900.507 489.706 910.663 495.59 912.544 496.566C914.425 497.54 918.251 499.741 921.045 501.458C930.65 507.355 980.033 536.307 980.484 536.307C980.733 536.307 980.932 503.587 980.926 463.595L980.914 390.883L926.181 362.935C888.846 343.872 871.236 335.546 870.78 336.745ZM618.453 575.879C618.453 576.608 624.148 580.331 631.106 584.154C638.064 587.977 648.991 594.059 655.385 597.671C661.78 601.281 671.013 606.401 675.903 609.051C680.794 611.699 687.564 615.423 690.95 617.327C694.335 619.23 704.33 624.732 713.16 629.549L729.215 638.311H799.677H870.14V685.009C870.14 720.72 870.542 732.027 871.85 733.071C872.791 733.822 887.409 741.886 904.337 750.99C921.264 760.095 939.115 769.704 944.005 772.344C974.116 788.601 979.275 791.316 980.063 791.316C980.543 791.316 980.937 743.244 980.937 684.488V577.66L963.497 577.725C934.82 577.831 756.718 576.36 685.136 575.425C642.808 574.873 618.453 575.039 618.453 575.879ZM593.832 662.951V733.08L603.065 737.949C615.985 744.761 638.293 756.398 666.328 770.947C679.494 777.781 692.255 784.583 694.687 786.062C697.118 787.542 699.734 788.362 700.5 787.885C701.414 787.317 701.893 764.583 701.893 721.838C701.893 661.475 701.716 656.503 699.499 654.571C698.182 653.422 687.564 647.01 675.903 640.322C664.242 633.632 651.499 626.102 647.586 623.586C643.672 621.071 640.149 619.013 639.756 619.013C639.362 619.013 629.161 613.12 617.085 605.918C605.01 598.715 594.837 592.823 594.48 592.823C594.124 592.823 593.832 624.38 593.832 662.951ZM508.34 917.616C501.581 919.34 490.473 925.585 486.111 930.111C480.261 936.182 475.555 946.374 473.407 957.625C469.995 975.507 478.263 998.257 491.517 1007.45C507.571 1018.58 532.107 1018.75 547.83 1007.85C558.929 1000.16 564.424 990.473 566.279 975.334C569.349 950.27 560.457 930.353 542.171 921.338C535.954 918.272 532.39 917.52 522.813 917.249C516.357 917.067 509.845 917.233 508.34 917.616ZM608.194 918.953C601.533 921.367 595.026 926.959 591.989 932.881C589.5 937.738 588.962 950.381 591.014 955.819C593.613 962.709 601.356 968.582 614.72 973.801C621.867 976.591 629.016 980.012 630.607 981.401C636.09 986.194 633.439 994.248 625.737 996.196C620.736 997.461 605.822 995.802 599.943 993.326C597.175 992.16 594.366 991.544 593.704 991.957C591.51 993.323 587.972 1007.89 589.467 1009.4C592.145 1012.09 609.619 1016 619.018 1016C643.273 1016 656.738 1005.67 656.738 987.053C656.738 970.907 649.2 963.372 624.243 954.572C615.081 951.341 610.957 947.143 612.169 942.282C613.77 935.853 625.755 934.079 638.829 938.334C642.686 939.588 646.032 940.364 646.264 940.057C646.497 939.748 647.954 935.944 649.501 931.6C652.73 922.532 652.684 922.456 641.891 919.061C632.943 916.247 615.816 916.192 608.194 918.953ZM963.839 918.606C954.561 921.691 950.074 924.638 943.596 931.899C935.114 941.406 932.37 949.87 932.42 966.377C932.467 981.661 934.173 988.444 940.262 997.564C949.303 1011.11 963.84 1016.92 985.331 1015.6C992.319 1015.17 1001.11 1014 1004.87 1013L1011.71 1011.18L1012.09 987.844C1012.34 972.074 1011.98 964.212 1010.97 963.584C1010.15 963.071 1005.67 962.795 1001.02 962.97C989.069 963.418 989.001 963.432 989.247 965.343C989.369 966.291 989.396 973.733 989.306 981.884L989.144 996.702H981.911C965.498 996.702 955.049 985.475 954.972 967.755C954.927 957.171 958.164 947.073 963.14 942.269C969.615 936.018 986.664 934.798 998.414 939.745C1000.91 940.794 1003.52 941.291 1004.23 940.849C1004.94 940.407 1006.53 936.558 1007.76 932.295C1009.88 924.927 1009.87 924.452 1007.5 922.702C1003.07 919.44 995.592 917.838 982.305 917.306C973.882 916.968 967.386 917.426 963.839 918.606ZM1146.04 918.092C1139.41 918.647 1133.4 919.697 1132.68 920.427C1131.88 921.239 1131.5 939.656 1131.73 967.843L1132.09 1013.93H1142.35H1152.6L1152.99 997.047L1153.37 980.161H1158.56C1163.44 980.161 1164.11 980.712 1169.95 989.465C1173.36 994.582 1178.15 1002.37 1180.59 1006.78L1185.04 1014.79L1196.52 1014.36C1205.15 1014.04 1208 1013.46 1208 1012.03C1208 1009.55 1198.54 992.363 1192.36 983.611C1189.68 979.823 1187.48 976.307 1187.48 975.798C1187.48 975.288 1189.61 973.55 1192.2 971.933C1199.62 967.311 1202.81 960.896 1203.03 950.111C1203.53 925.59 1184.45 914.87 1146.04 918.092ZM672.142 919.033C671.026 919.495 670.432 922.795 670.432 928.536V937.333L684.453 937.726L698.473 938.119L699.157 976.026L699.841 1013.93H710.1H720.359L721.043 976.026L721.727 938.119L735.405 937.43L749.084 936.74V927.781V918.821L711.468 918.574C690.779 918.438 673.083 918.644 672.142 919.033ZM772.276 919.864C771.914 920.818 771.778 942.373 771.977 967.765L772.338 1013.93H782.597H792.856L793.215 966.898L793.575 919.862L789.283 918.997C782.039 917.536 772.986 917.999 772.276 919.864ZM826.026 919.203C823.804 919.675 823.633 923.046 823.633 966.33C823.633 1002.36 824.021 1013.1 825.343 1013.6C826.284 1013.96 831.053 1014.18 835.944 1014.09L844.835 1013.93L845.519 983.866L846.202 953.8L854.41 964.287C858.924 970.056 867.688 982.965 873.885 992.975C880.082 1002.98 885.827 1011.98 886.65 1012.96C887.654 1014.16 890.923 1014.61 896.584 1014.34L905.021 1013.93V966.377V918.821L896.871 918.399C881.51 917.604 882.517 915.694 882.848 945.023C883.005 959.042 882.776 970.512 882.339 970.512C881.902 970.512 879.514 967.355 877.033 963.497C872.091 955.811 854.382 932.652 847.038 924.268C842.851 919.489 841.723 918.963 835.411 918.835C831.566 918.757 827.344 918.923 826.026 919.203ZM1040.41 919.783C1040.03 920.781 1039.88 942.373 1040.08 967.765L1040.44 1013.93L1071.22 1014.32C1088.14 1014.54 1103.38 1014.37 1105.07 1013.95C1107.87 1013.26 1108.15 1012.38 1108.15 1004.29V995.39L1085.36 995.012L1062.57 994.634L1062.49 984.296L1062.41 973.958L1081.18 973.575L1099.94 973.191V964.27V955.349H1081.48H1063.01L1062.89 951.558C1062.82 949.473 1062.67 945.597 1062.55 942.943L1062.33 938.119L1083.25 937.738L1104.17 937.357L1103.76 928.089L1103.36 918.821L1072.23 918.395C1047.45 918.054 1040.96 918.338 1040.41 919.783ZM367.41 921.185C367.036 922.17 366.891 943.442 367.089 968.455L367.45 1013.93H378.393H389.336L389.716 994.247L390.095 974.563L406.814 974.949L423.532 975.336L423.911 994.979L424.292 1014.62H435.196H446.102V967.066V919.51H435.159H424.216L424.045 935.362C423.951 944.08 423.798 951.99 423.703 952.937C423.579 954.189 418.958 954.766 406.817 955.047L390.102 955.433L389.719 937.817L389.336 920.199L378.714 919.797C370.963 919.502 367.908 919.878 367.41 921.185ZM526.288 937.43C528.292 937.43 531.907 939.554 535.247 942.692C539.953 947.116 541.139 949.371 542.679 956.821C545.427 970.12 543.164 981.607 536.344 988.974C531.456 994.258 530.75 994.553 521.824 995.045C513.716 995.492 511.797 995.12 507.677 992.301C499.71 986.849 496.762 979.943 496.735 966.666C496.71 954.18 498.928 947.824 505.441 941.697C508.875 938.469 517.446 935.844 521.105 936.903C522.106 937.192 524.438 937.43 526.288 937.43ZM1177.14 941.484C1180.58 944.742 1181.61 949.829 1179.8 954.598C1178.32 958.477 1171.64 960.863 1162.25 960.863H1153.29V948.996V937.128L1163.46 937.646C1171.91 938.076 1174.23 938.727 1177.14 941.484Z" fill="white"/>
</svg>
